HIERARCHY
ROOT Hips
{
    OFFSET 0.0 0.0 0.0
    CHANNELS 6 Xposition Yposition Zposition Zrotation Xrotation Yrotation
    JOINT LeftUpLeg
    {
        OFFSET 15.78530481169803 0.0 0.0
        CHANNELS 3 Zrotation Xrotation Yrotation
        JOINT LeftLeg
        {
            OFFSET 0.0 0.0 -60.77844092584536
            CHANNELS 3 Zrotation Xrotation Yrotation
            JOINT LeftFoot
            {
                OFFSET 0.0 0.0 -48.69086280615893
                CHANNELS 3 Zrotation Xrotation Yrotation
                JOINT LeftToeBase
                {
                    OFFSET 0.0 -12.119733701923348 0.0
                    CHANNELS 3 Zrotation Xrotation Yrotation
                    End Site
                    {
                        OFFSET 0 0 0
                    }
                }
            }
        }
    }
    JOINT RightUpLeg
    {
        OFFSET -15.78530481169803 0.0 0.0
        CHANNELS 3 Zrotation Xrotation Yrotation
        JOINT RightLeg
        {
            OFFSET 0.0 0.0 -60.77844092584536
            CHANNELS 3 Zrotation Xrotation Yrotation
            JOINT RightFoot
            {
                OFFSET 0.0 0.0 -48.69086280615893
                CHANNELS 3 Zrotation Xrotation Yrotation
                JOINT RightToeBase
                {
                    OFFSET 0.0 -12.119733701923348 0.0
                    CHANNELS 3 Zrotation Xrotation Yrotation
                    End Site
                    {
                        OFFSET 0 0 0
                    }
                }
            }
        }
    }
    JOINT Spine
    {
        OFFSET 0.0 0.0 12.154138271451009
        CHANNELS 3 Zrotation Xrotation Yrotation
        JOINT Spine1
        {
            OFFSET 0.0 0.0 11.63343440844537
            CHANNELS 3 Zrotation Xrotation Yrotation
            JOINT Spine2
            {
                OFFSET 0.0 0.0 11.633434408445371
                CHANNELS 3 Zrotation Xrotation Yrotation
                JOINT Spine3
                {
                    OFFSET 0.0 0.0 11.633434408445366
                    CHANNELS 3 Zrotation Xrotation Yrotation
                    JOINT Spine4
                    {
                        OFFSET 0.0 0.0 11.633434408445373
                        CHANNELS 3 Zrotation Xrotation Yrotation
                        JOINT RightShoulder
                        {
                            OFFSET -26.566335708633652 0.0 0.0
                            CHANNELS 3 Zrotation Xrotation Yrotation
                            JOINT RightArm
                            {
                                OFFSET -32.543378487251985 0.0 0.0
                                CHANNELS 3 Zrotation Xrotation Yrotation
                                JOINT RightForeArm
                                {
                                    OFFSET -33.704342358310015 0.0 0.0
                                    CHANNELS 3 Zrotation Xrotation Yrotation
                                    JOINT RightHand
                                    {
                                        OFFSET -11.48014479188858 0.0 0.0
                                        CHANNELS 3 Zrotation Xrotation Yrotation
                                        End Site
                                        {
                                            OFFSET 0 0 0
                                        }
                                    }
                                }
                            }
                        }
                        JOINT LeftShoulder
                        {
                            OFFSET 26.566335708633652 0.0 0.0
                            CHANNELS 3 Zrotation Xrotation Yrotation
                            JOINT LeftArm
                            {
                                OFFSET 32.543378487251985 0.0 0.0
                                CHANNELS 3 Zrotation Xrotation Yrotation
                                JOINT LeftForeArm
                                {
                                    OFFSET 33.704342358310015 0.0 0.0
                                    CHANNELS 3 Zrotation Xrotation Yrotation
                                    JOINT LeftHand
                                    {
                                        OFFSET 11.48014479188858 0.0 0.0
                                        CHANNELS 3 Zrotation Xrotation Yrotation
                                        End Site
                                        {
                                            OFFSET 0 0 0
                                        }
                                    }
                                }
                            }
                        }
                        JOINT Neck
                        {
                            OFFSET 0.0 0.0 11.633434420649236
                            CHANNELS 3 Zrotation Xrotation Yrotation
                            JOINT Head
                            {
                                OFFSET 0.0 0.0 26.160153086701012
                                CHANNELS 3 Zrotation Xrotation Yrotation
                                End Site
                                {
                                    OFFSET 0 0 0
                                }
                            }
                        }
                    }
                }
            }
        }
    }
}
MOTION
Frames: 4
Frame Time: 0.03333333333333333
55.51475801467896 5.634432524442673 478.7766242980957 138.04090387359807 -84.30681473560959 138.4440895720031 -0.2189233855280357 4.158549831639476 -11.05131810797314 16.972642964546857 -11.71560465889031 27.362925526318772 -112.59256385719509 -1.5902773407317584e-14 84.61264778530565 0.0 0.0 0.0 6.294735452621872 9.640686428819274 28.03282953796242 -23.829089923093743 -6.283233128252383 -47.75588245927657 135.20589813452676 -9.54166404439055e-15 -47.16793458888667 0.0 0.0 0.0 0.08226422002786866 2.4206396409777793 0.09784482635875842 0.0 0.0 0.0 0.0 0.0 0.0 0.0 0.0 0.0 0.0 0.0 0.0 142.1809224954372 16.363386408828728 -154.734599118767 117.50478850079861 -1.237404816853826e-15 2.0393721742800933e-15 4.3082180939764193e-14 74.59420765397894 -4.0812710420826316e-14 2.981770013872047e-16 -3.1805546814635168e-15 8.276074308844047e-33 177.37749656453187 -10.927343725655474 -168.50162938040637 -27.841879094737426 -1.2438425037152628e-14 1.9377514578140504e-16 5.248437573664214e-15 28.150772967895342 -1.3159197434759128e-15 0.0 5.5659706925611536e-15 0.0 -7.61411385159849 6.91731706619822e-15 4.603034405736019e-16 0.0 -1.2424041724466865e-17 0.0
55.87767441272736 5.90785882472992 478.76536216735843 136.00253812085361 -84.11053506298313 136.20751385234232 -0.4535657669733932 4.377117287530231 -10.344835517396186 17.45623375390866 -12.241748186977253 26.58785461381322 -112.78279829909702 -2.2263882770244617e-14 84.2104776945222 -6.361109362927033e-15 0.0 0.0 12.824643075796963 15.543121875783626 29.79312320457487 -29.16221935003136 -5.974168070755105 -54.739416105651145 129.06870668289775 1.2722218725854067e-14 -51.135845595511064 0.0 0.0 0.0 0.07081403472160845 2.437859524285007 0.13130708792373555 -3.975693351829396e-16 0.0 0.0 -3.975693351829396e-16 0.0 0.0 -3.975693351829396e-16 0.0 0.0 -3.975693351829396e-16 0.0 0.0 139.97103500237077 18.55936433433734 -152.9183121217661 115.23725031727982 -1.2775150328836659e-15 2.0144887407869053e-15 -1.1546591399968834e-14 71.27680841617588 1.610529039053654e-14 0.0 0.0 0.0 174.92699264361625 -5.9049701141946125 -168.28564720563375 -30.518952955751264 7.383386659272675e-15 2.0142542507385355e-15 -1.4122711055592489e-14 20.200589062292636 -2.3302200489669663e-15 -3.1805546814635168e-15 6.3611093629270335e-15 1.5902773407317584e-15 -7.784348854903762 -3.398531721453441e-15 1.6726610721811038e-16 3.975693351829396e-16 0.0 0.0
56.17947292327881 6.0934845328330995 478.7625429153443 133.94028157591757 -83.86659530872787 133.95920194571335 -0.6966649963311367 4.5908444236432215 -9.746336195036948 17.874807438121998 -12.697181711617741 25.97320956585701 -112.89637800072444 3.1805546814635168e-15 83.75155587646613 0.0 0.0 0.0 17.718358896691555 19.638472909060063 27.393092209285843 -35.75541973745353 -7.719547961424658 -55.366260477122246 130.72400629784588 9.54166404439055e-15 -55.05026827005186 -6.3611093629270335e-15 0.0 0.0 0.060526353636506845 2.4581627843864746 0.16309812626512615 0.0 0.0 0.0 0.0 0.0 0.0 0.0 0.0 0.0 0.0 0.0 0.0 137.4086015864429 20.53266127119475 -150.59190491592022 112.37598404915727 3.515358844604089e-15 6.182385672421389e-15 4.596683031186635e-15 66.21063132835937 4.596683031186635e-15 0.0 0.0 0.0 172.62616329126584 -0.505736772715863 -168.3417359852808 -32.04518812177362 -7.645003818642796e-15 -1.0468191746059143e-14 3.078971864273909e-15 -1.226273925787108 -9.509260279089485e-15 0.0 0.0 0.0 -7.918864177022428 -1.91838490397735e-14 -1.7263371856308482e-15 0.0 0.0 0.0
56.419279503822324 6.193440476059914 478.76179904937743 132.0564049302334 -83.62391371898298 131.9309674425123 -0.9135519862182555 4.782311741823187 -9.285113157100819 18.42366230008457 -13.209828031158871 26.058263417992524 -113.17711279770647 3.1805546814635168e-15 84.00225215474033 0.0 0.0 0.0 20.45545598991197 21.758022318475348 24.23292505969811 -41.92016477051714 -10.302670076645468 -52.09215701553616 113.35062624778173 -1.2722218725854067e-14 -70.30540642504926 6.3611093629270335e-15 -3.1805546814635168e-15 -4.770832022195275e-15 0.05398882765038759 2.4755426724943828 0.17994019219395024 0.0 0.0 0.0 0.0 0.0 0.0 0.0 0.0 0.0 0.0 0.0 0.0 134.92241262279595 21.960168705665257 -147.8958807388366 109.34497624813116 1.3793654841253191e-15 -1.946165565208851e-15 1.3498647739662647e-14 58.241584235949674 -1.1160431163399746e-14 0.0 0.0 0.0 170.29515490725004 5.6628569477490025 -168.4972032631569 -33.053325138437394 1.548637195989816e-15 2.118318092095393e-15 1.092307448196835e-15 -34.76590521992662 -7.156768601118719e-15 7.951386703658792e-16 2.758691436281349e-33 3.975693351829396e-16 -7.981491169727109 -2.389144879247715e-15 -5.652131702912294e-16 -1.9878466759146985e-16 0.0 0.0
